<?xml version="1.0" standalone="no"?>
<!DOCTYPE svg PUBLIC "-//W3C//DTD SVG 20010904//EN"
 "http://www.w3.org/TR/2001/REC-SVG-20010904/DTD/svg10.dtd">
<svg version="1.0" xmlns="http://www.w3.org/2000/svg"
 width="256.000000pt" height="256.000000pt" viewBox="0 0 256.000000 256.000000"
 preserveAspectRatio="xMidYMid meet">
<metadata>
Created by potrace 1.11, written by Peter Selinger 2001-2013
</metadata>
<g transform="translate(0.000000,256.000000) scale(0.100000,-0.100000)"
fill="#000000" stroke="none">
<path d="M602 2548 c-7 -7 -12 -42 -12 -88 l0 -76 -70 -11 c-89 -14 -153 -45
-210 -103 -58 -57 -89 -121 -101 -209 -6 -42 -9 -413 -7 -923 l3 -853 23 -57
c32 -80 99 -150 180 -190 l67 -33 805 0 805 0 67 33 c81 40 148 110 180 190
l23 57 3 853 c2 510 -1 881 -7 923 -12 88 -43 152 -101 209 -57 58 -121 89
-210 103 l-69 10 -3 80 c-2 63 -7 82 -20 91 -13 8 -23 8 -35 0 -14 -9 -19 -28
-21 -93 l-3 -81 -69 0 -70 0 0 78 c0 76 -9 102 -36 102 -31 0 -44 -31 -44
-106 l0 -74 -65 0 -65 0 0 74 c0 75 -13 106 -44 106 -27 0 -36 -26 -36 -102
l0 -78 -70 0 -69 0 -3 81 c-2 65 -7 84 -20 93 -13 8 -23 8 -35 0 -14 -9 -19
-28 -21 -93 l-3 -81 -69 0 -70 0 0 78 c0 76 -9 102 -36 102 -31 0 -44 -31 -44
-106 l0 -74 -65 0 -65 0 0 74 c0 75 -13 106 -44 106 -27 0 -36 -26 -36 -102
l0 -78 -70 0 -70 0 0 78 c0 79 -9 102 -40 102 -9 0 -21 -5 -28 -12z m-12 -307
c0 -77 6 -91 40 -91 34 0 40 14 40 91 l0 59 70 0 69 0 3 -72 c3 -69 4 -73 27
-76 36 -5 51 22 51 90 l0 58 65 0 65 0 0 -58 c0 -68 15 -95 51 -90 23 3 24 7
27 76 l3 72 69 0 70 0 0 -59 c0 -77 6 -91 40 -91 34 0 40 14 40 91 l0 59 70 0
69 0 3 -72 c3 -69 4 -73 27 -76 36 -5 51 22 51 90 l0 58 65 0 65 0 0 -58 c0
-68 15 -95 51 -90 23 3 24 7 27 76 l3 72 69 0 70 0 0 -63 c0 -67 10 -87 46
-87 28 0 34 17 34 92 l0 61 50 -6 c105 -13 183 -66 227 -155 l28 -57 0 -895 0
-895 -24 -53 c-14 -30 -43 -69 -68 -92 -83 -73 -47 -70 -903 -70 -856 0 -820
-3 -903 70 -25 23 -54 62 -68 92 l-24 53 0 896 0 895 30 59 c17 32 47 71 67
88 42 34 127 66 176 67 l32 0 0 -59z"/>
<path d="M884 1732 c-6 -4 -46 -63 -89 -132 -42 -69 -83 -131 -89 -138 -9 -10
-25 -3 -76 33 -68 48 -90 54 -110 30 -20 -24 -3 -48 74 -102 98 -70 123 -81
140 -62 27 27 206 323 206 339 0 31 -31 49 -56 32z"/>
<path d="M1134 1545 c-4 -8 -4 -22 0 -30 5 -13 62 -15 436 -15 375 0 431 2
436 15 4 8 1 22 -6 30 -19 23 -858 23 -866 0z"/>
<path d="M884 1032 c-6 -4 -46 -63 -89 -132 -42 -69 -83 -131 -89 -138 -9 -10
-25 -3 -76 33 -68 48 -90 54 -110 30 -20 -24 -3 -48 72 -100 95 -66 114 -76
132 -69 16 6 205 302 213 335 9 33 -25 60 -53 41z"/>
<path d="M1134 845 c-4 -8 -4 -22 0 -30 5 -13 60 -15 438 -13 l433 3 0 25 0
25 -433 3 c-378 2 -433 0 -438 -13z"/>
</g>
</svg>
